<?xml version="1.0" encoding="UTF-8"?>
<svg id="_1" data-name="1" xmlns="http://www.w3.org/2000/svg" viewBox="0 0 480 480">
  <defs>
    <style>
      .cls-1 {
        fill: #3e6576;
      }

      .cls-2 {
        fill: #8c6239;
      }

      .cls-3 {
        fill: #74c0e3;
      }

      .cls-4 {
        fill: #528ea3;
      }

      .cls-5 {
        fill: #603813;
      }

      .cls-6 {
        fill: #42210b;
      }

      .cls-7 {
        fill: #224c5b;
      }

      .cls-8 {
        fill: #754c24;
      }
    </style>
  </defs>
  <g>
    <path class="cls-3" d="M240,240V0c132.55,0,240,107.45,240,240s-107.45,240-240,240S0,372.55,0,240H240Z"/>
    <path class="cls-2" d="M240,240V0C107.45,0,0,107.45,0,240H240Z"/>
  </g>
  <g>
    <polygon class="cls-4" points="31.34 263.52 275.95 291.07 263.66 182.21 31.34 263.52"/>
    <polygon class="cls-4" points="41.81 309.36 286.42 281.81 250.22 178.37 41.81 309.36"/>
    <polygon class="cls-4" points="62.21 351.74 294.53 270.43 236.26 177.65 62.21 351.74"/>
    <polygon class="cls-4" points="91.49 388.51 299.95 257.52 222.48 180.05 91.49 388.51"/>
    <polygon class="cls-4" points="128.26 417.79 302.35 243.74 209.57 185.47 128.26 417.79"/>
    <polygon class="cls-4" points="170.64 438.19 301.63 229.78 198.19 193.58 170.64 438.19"/>
    <polygon class="cls-4" points="216.48 448.66 297.79 216.34 188.93 204.05 216.48 448.66"/>
    <polygon class="cls-4" points="263.52 448.66 291.07 204.05 182.21 216.34 263.52 448.66"/>
    <polygon class="cls-4" points="309.36 438.19 281.81 193.58 178.37 229.78 309.36 438.19"/>
    <polygon class="cls-4" points="351.74 417.79 270.43 185.47 177.65 243.74 351.74 417.79"/>
    <polygon class="cls-4" points="388.51 388.51 257.52 180.05 180.05 257.52 388.51 388.51"/>
    <polygon class="cls-4" points="417.79 351.74 243.74 177.65 185.47 270.43 417.79 351.74"/>
    <polygon class="cls-4" points="438.19 309.36 229.78 178.37 193.58 281.81 438.19 309.36"/>
    <polygon class="cls-4" points="448.66 263.52 216.34 182.21 204.05 291.07 448.66 263.52"/>
    <polygon class="cls-4" points="448.66 216.48 204.05 188.93 216.34 297.79 448.66 216.48"/>
    <polygon class="cls-4" points="438.19 170.64 193.58 198.19 229.78 301.63 438.19 170.64"/>
    <polygon class="cls-4" points="417.79 128.26 185.47 209.57 243.74 302.35 417.79 128.26"/>
    <polygon class="cls-4" points="388.51 91.49 180.05 222.48 257.52 299.95 388.51 91.49"/>
    <polygon class="cls-4" points="351.74 62.21 177.65 236.26 270.43 294.53 351.74 62.21"/>
    <polygon class="cls-4" points="309.36 41.81 178.37 250.22 281.81 286.42 309.36 41.81"/>
    <polygon class="cls-4" points="263.52 31.34 182.21 263.66 291.07 275.95 263.52 31.34"/>
    <polygon class="cls-8" points="216.48 31.34 188.93 275.95 297.79 263.66 216.48 31.34"/>
    <polygon class="cls-8" points="170.64 41.81 198.19 286.42 301.63 250.22 170.64 41.81"/>
    <polygon class="cls-8" points="128.26 62.21 209.57 294.53 302.35 236.26 128.26 62.21"/>
    <polygon class="cls-8" points="91.49 91.49 222.48 299.95 299.95 222.48 91.49 91.49"/>
    <polygon class="cls-8" points="62.21 128.26 236.26 302.35 294.53 209.57 62.21 128.26"/>
    <polygon class="cls-8" points="41.81 170.64 250.22 301.63 286.42 198.19 41.81 170.64"/>
    <polygon class="cls-8" points="31.34 216.48 263.66 297.79 275.95 188.93 31.34 216.48"/>
  </g>
  <g>
    <polygon class="cls-1" points="0 240 240 294.77 240 240 0 240"/>
    <polygon class="cls-1" points="6 293.42 252.19 293.42 227.81 186.58 6 293.42"/>
    <polygon class="cls-1" points="23.76 344.11 263.76 289.34 216.24 190.66 23.76 344.11"/>
    <polygon class="cls-1" points="52.37 389.62 274.18 282.82 205.82 197.18 52.37 389.62"/>
    <polygon class="cls-1" points="90.38 427.63 282.82 274.18 197.18 205.82 90.38 427.63"/>
    <polygon class="cls-1" points="135.89 456.24 289.34 263.76 190.66 216.24 135.89 456.24"/>
    <polygon class="cls-1" points="186.58 474 293.42 252.19 186.58 227.81 186.58 474"/>
    <polygon class="cls-1" points="240 480 294.77 240 185.23 240 240 480"/>
    <polygon class="cls-1" points="293.42 474 293.42 227.81 186.58 252.19 293.42 474"/>
    <polygon class="cls-1" points="344.11 456.24 289.34 216.24 190.66 263.76 344.11 456.24"/>
    <polygon class="cls-1" points="389.62 427.63 282.82 205.82 197.18 274.18 389.62 427.63"/>
    <polygon class="cls-1" points="427.63 389.62 274.18 197.18 205.82 282.82 427.63 389.62"/>
    <polygon class="cls-1" points="456.24 344.11 263.76 190.66 216.24 289.34 456.24 344.11"/>
    <polygon class="cls-1" points="474 293.42 252.19 186.58 227.81 293.42 474 293.42"/>
    <polygon class="cls-1" points="480 240 240 185.23 240 294.77 480 240"/>
    <polygon class="cls-1" points="474 186.58 227.81 186.58 252.19 293.42 474 186.58"/>
    <polygon class="cls-1" points="456.24 135.89 216.24 190.66 263.76 289.34 456.24 135.89"/>
    <polygon class="cls-1" points="427.63 90.38 205.82 197.18 274.18 282.82 427.63 90.38"/>
    <polygon class="cls-1" points="389.62 52.37 197.18 205.82 282.82 274.18 389.62 52.37"/>
    <polygon class="cls-1" points="344.11 23.76 190.66 216.24 289.34 263.76 344.11 23.76"/>
    <polygon class="cls-1" points="293.42 6 186.58 227.81 293.42 252.19 293.42 6"/>
    <polygon class="cls-1" points="240 0 240 240 294.77 240 240 0"/>
    <polygon class="cls-5" points="240 0 185.23 240 240 240 240 0"/>
    <polygon class="cls-5" points="186.58 6 186.58 252.19 293.42 227.81 186.58 6"/>
    <polygon class="cls-5" points="135.89 23.76 190.66 263.76 289.34 216.24 135.89 23.76"/>
    <polygon class="cls-5" points="90.38 52.37 197.18 274.18 282.82 205.82 90.38 52.37"/>
    <polygon class="cls-5" points="52.37 90.38 205.82 282.82 274.18 197.18 52.37 90.38"/>
    <polygon class="cls-5" points="23.76 135.89 216.24 289.34 263.76 190.66 23.76 135.89"/>
    <polygon class="cls-5" points="6 186.58 227.81 293.42 252.19 186.58 6 186.58"/>
    <polygon class="cls-5" points="0 240 240 240 240 185.23 0 240"/>
  </g>
  <g>
    <polygon class="cls-7" points="60 240 300 294.77 300 240 60 240"/>
    <polygon class="cls-7" points="64.51 280.03 310.7 280.03 286.32 173.23 64.51 280.03"/>
    <polygon class="cls-7" points="77.81 318.1 317.81 263.33 270.29 164.59 77.81 318.1"/>
    <polygon class="cls-7" points="99.26 352.22 321.07 245.42 252.77 159.74 99.26 352.22"/>
    <polygon class="cls-7" points="127.78 380.74 320.26 227.23 234.58 158.93 127.78 380.74"/>
    <polygon class="cls-7" points="161.9 402.19 315.41 209.71 216.67 162.19 161.9 402.19"/>
    <polygon class="cls-7" points="199.97 415.49 306.77 193.68 199.97 169.3 199.97 415.49"/>
    <polygon class="cls-7" points="240 420 294.77 180 185.23 180 240 420"/>
    <polygon class="cls-7" points="280.03 415.49 280.03 169.3 173.23 193.68 280.03 415.49"/>
    <polygon class="cls-7" points="318.1 402.19 263.33 162.19 164.59 209.71 318.1 402.19"/>
    <polygon class="cls-7" points="352.22 380.74 245.42 158.93 159.74 227.23 352.22 380.74"/>
    <polygon class="cls-7" points="380.74 352.22 227.23 159.74 158.93 245.42 380.74 352.22"/>
    <polygon class="cls-7" points="402.19 318.1 209.71 164.59 162.19 263.33 402.19 318.1"/>
    <polygon class="cls-7" points="415.49 280.03 193.68 173.23 169.3 280.03 415.49 280.03"/>
    <polygon class="cls-7" points="420 240 180 185.23 180 294.77 420 240"/>
    <polygon class="cls-7" points="415.49 199.97 169.3 199.97 193.68 306.77 415.49 199.97"/>
    <polygon class="cls-7" points="402.19 161.9 162.19 216.67 209.71 315.41 402.19 161.9"/>
    <polygon class="cls-7" points="380.74 127.78 158.93 234.58 227.23 320.26 380.74 127.78"/>
    <polygon class="cls-7" points="352.22 99.26 159.74 252.77 245.42 321.07 352.22 99.26"/>
    <polygon class="cls-7" points="318.1 77.81 164.59 270.29 263.33 317.81 318.1 77.81"/>
    <polygon class="cls-7" points="280.03 64.51 173.23 286.32 280.03 310.7 280.03 64.51"/>
    <polygon class="cls-7" points="240 60 240 300 294.77 300 240 60"/>
    <polygon class="cls-6" points="240 60 185.23 300 240 300 240 60"/>
    <polygon class="cls-6" points="199.97 64.51 199.97 310.7 306.77 286.32 199.97 64.51"/>
    <polygon class="cls-6" points="161.9 77.81 216.67 317.81 315.41 270.29 161.9 77.81"/>
    <polygon class="cls-6" points="127.78 99.26 234.58 321.07 320.26 252.77 127.78 99.26"/>
    <polygon class="cls-6" points="99.26 127.78 252.77 320.26 321.07 234.58 99.26 127.78"/>
    <polygon class="cls-6" points="77.81 161.9 270.29 315.41 317.81 216.67 77.81 161.9"/>
    <polygon class="cls-6" points="64.51 199.97 286.32 306.77 310.7 199.97 64.51 199.97"/>
    <polygon class="cls-6" points="60 240 300 240 300 185.23 60 240"/>
  </g>
  <g>
    <polygon points="96 240 336 294.77 336 240 96 240"/>
    <polygon points="99.6 272.06 345.79 272.06 321.41 165.22 99.6 272.06"/>
    <polygon points="110.26 302.5 350.26 247.68 302.74 148.99 110.26 302.5"/>
    <polygon points="127.44 329.76 349.2 222.96 280.9 137.33 127.44 329.76"/>
    <polygon points="150.24 352.56 342.67 199.1 257.04 130.8 150.24 352.56"/>
    <polygon points="177.5 369.74 331.01 177.26 232.32 129.74 177.5 369.74"/>
    <polygon points="207.94 380.4 314.78 158.59 207.94 134.21 207.94 380.4"/>
    <polygon points="240 384 294.77 144 185.23 144 240 384"/>
    <polygon points="272.06 380.4 272.06 134.21 165.22 158.59 272.06 380.4"/>
    <polygon points="302.5 369.74 247.68 129.74 148.99 177.26 302.5 369.74"/>
    <polygon points="329.76 352.56 222.96 130.8 137.33 199.1 329.76 352.56"/>
    <polygon points="352.56 329.76 199.1 137.33 130.8 222.96 352.56 329.76"/>
    <polygon points="369.74 302.5 177.26 148.99 129.74 247.68 369.74 302.5"/>
    <polygon points="380.4 272.06 158.59 165.22 134.21 272.06 380.4 272.06"/>
    <polygon points="384 240 144 185.23 144 294.77 384 240"/>
    <polygon points="380.4 207.94 134.21 207.94 158.59 314.78 380.4 207.94"/>
    <polygon points="369.74 177.5 129.74 232.32 177.26 331.01 369.74 177.5"/>
    <polygon points="352.56 150.24 130.8 257.04 199.1 342.67 352.56 150.24"/>
    <polygon points="329.76 127.44 137.33 280.9 222.96 349.2 329.76 127.44"/>
    <polygon points="302.5 110.26 148.99 302.74 247.68 350.26 302.5 110.26"/>
    <polygon points="272.06 99.6 165.22 321.41 272.06 345.79 272.06 99.6"/>
    <polygon points="240 96 240 336 294.77 336 240 96"/>
    <polygon points="240 96 185.23 336 240 336 240 96"/>
    <polygon points="207.94 99.6 207.94 345.79 314.78 321.41 207.94 99.6"/>
    <polygon points="177.5 110.26 232.32 350.26 331.01 302.74 177.5 110.26"/>
    <polygon points="150.24 127.44 257.04 349.2 342.67 280.9 150.24 127.44"/>
    <polygon points="127.44 150.24 280.9 342.67 349.2 257.04 127.44 150.24"/>
    <polygon points="110.26 177.5 302.74 331.01 350.26 232.32 110.26 177.5"/>
    <polygon points="99.6 207.94 321.41 314.78 345.79 207.94 99.6 207.94"/>
    <polygon points="96 240 336 240 336 185.23 96 240"/>
  </g>
  <circle cx="240" cy="240" r="120"/>
</svg>
