<?xml version="1.0" encoding="utf-8"?>
<!-- Generator: Adobe Illustrator 26.5.0, SVG Export Plug-In . SVG Version: 6.00 Build 0)  -->
<svg version="1.1" id="1" xmlns="http://www.w3.org/2000/svg" xmlns:xlink="http://www.w3.org/1999/xlink" x="0px" y="0px"
	 viewBox="0 0 480 480" style="enable-background:new 0 0 480 480;" xml:space="preserve">
<style type="text/css">
	.st0{fill:#FFFFFF;stroke:#000000;stroke-width:3;}
	.st1{fill:#0C7F99;}
</style>
<path class="st0" d="M233.9,122.5h0.7l0.4-0.6c2.5-3.4,4-7.7,4-12.2c0-11.3-9.2-20.6-20.6-20.5c-11.3,0-20.5,9.2-20.5,20.5
	c0,4.6,1.5,9.2,4.4,12.6l0.5,0.5h0.7L233.9,122.5z"/>
<path class="st0" d="M288.9,122.5h0.7l0.4-0.6c2.5-3.4,4-7.7,4-12.2c0-11.3-9.2-20.6-20.6-20.5c-11.3,0-20.5,9.2-20.5,20.5
	c0,4.6,1.5,9.2,4.4,12.6l0.5,0.5h0.7L288.9,122.5z"/>
<path d="M224,94.8c-1.3,0.1-2.3,1.1-2.3,2.4s1.1,2.4,2.4,2.4c1.3,0,2.4-1.1,2.4-2.4S225.4,94.8,224,94.8L224,94.8l2.9-1
	c4.3,0,7.7,3.5,7.7,7.7s-3.5,7.7-7.7,7.7s-7.7-3.5-7.7-7.7s3.5-7.7,7.7-7.7"/>
<path d="M279,94.8c-1.3,0.1-2.3,1.1-2.3,2.4s1.1,2.4,2.4,2.4s2.4-1.1,2.4-2.4s-1.1-2.4-2.4-2.4H279l2.9-1c4.3,0,7.7,3.5,7.7,7.7
	s-3.5,7.7-7.7,7.7s-7.7-3.5-7.7-7.7s3.5-7.7,7.7-7.7"/>
<path class="st1" d="M311.5,345.2c-3.3-3.9-6.8-21.5-7.6-26.6c-0.7-4-0.4-6-0.5-12.7c-0.1-5.5-0.4-8-1-16.3
	c-1.2-15.8-2.2-34.6-2.6-39.8c-0.9-13.9-4.1-40.9-14.3-99.1c26.6-0.3,43.2,0.3,53.6,1.1c7.8,0.6,15.7,0,23.5,0.5
	c11.5,0.6,16.3,1.5,18.9-1.5c3.5-4.1,1-12.5-2-17.4c-9.4-15-34-12.6-35.9-12.3l-170.3-0.7c-13.1,0-18.4,0.9-24.3-5.3
	c-10.2-10.8-4.8-19.3-4.8-22.7s-2.8-4.6-6.3-4.6c-4,0-6.6,0.8-7.4,5.1c-4,20.7,0,34.4,7.1,43.2c9.7,12.2,24.6,14.6,31.1,15
	c0.8,0,0.8,0,9.1,0.2c9.2,0.2,16.6,0.4,21.4,0.5c-5.7,23.7-11.7,42.2-16.3,55.1c-9.5,26.4-13,28.4-16.3,41.9c-0.5,1.9-2,8-6.1,14.8
	c-3.1,5.1-5.6,9.1-10.2,11.7c-8.2,4.7-13.6-0.7-27.1,3.6c-4.5,1.4-8.9,2.9-10.2,6.6c-1.6,4.8,2.7,10.7,6.6,13.8
	c5,3.9,10.8,4.5,17.4,5.1c3.9,0.3,7.2,0.2,11.2,0c4.6-0.2,8.2-0.6,11.2-1c6.1-0.7,9.2-1.1,10.2-1.5c6-2.5,7.5-9.6,11.6-22.1
	c3.3-9.9-3.5,12.3,8.8-23.4c5.8-16.9,8.7-25.3,11.2-33.2c9.4-29.3,16-58,19.1-72.1c14.8,0,29.6,0,44.4,0
	c7.4,66.4,11.5,115.4,12.1,130.3c0.9,19.5,0.1,33.1,0.1,33.1c-0.2,2.9-0.4,5.9-0.5,8.8c-0.6,17.4-1.9,20.4,0,27.1
	c1.5,5.2,3.6,8,4.6,9.2c2.5,3,5.3,4.8,6.6,5.6c0.7,0.4,1.8,1.1,3.1,1.5c4.2,1.6,8.4,0.4,11.2-0.5c8.2-2.6-0.2,0.8,8.2-2.6
	c6.8-5.8,1.7-4,4.1-7.2"/>
<path d="M227.9,142c0,0.9,4.9,5.7,16.4,5.3c9.3-0.4,11-1.5,13.1-5.5l0.9-4c-3.7,0.1-13.2,0.8-19.3,0.6c-4.2-0.1-10-0.1-11,0.1"/>
</svg>
