<?xml version="1.0" encoding="utf-8"?>
<!-- Generator: Adobe Illustrator 26.5.0, SVG Export Plug-In . SVG Version: 6.00 Build 0)  -->
<svg version="1.1" id="图层_1" xmlns="http://www.w3.org/2000/svg" xmlns:xlink="http://www.w3.org/1999/xlink" x="0px" y="0px"
	 viewBox="0 0 480 480" style="enable-background:new 0 0 480 480;" xml:space="preserve">
<style type="text/css">
	.st0{fill:#FFFFFF;stroke:#000000;stroke-width:3;}
	.st1{fill:#0C7F99;}
</style>
<path class="st0" d="M235.9,127.5h0.7l0.4-0.6c2.5-3.4,4-7.7,4-12.2c0-11.3-9.2-20.6-20.6-20.5c-11.3,0-20.5,9.2-20.5,20.5
	c0,4.6,1.5,9.2,4.4,12.6l0.5,0.5h0.7L235.9,127.5z"/>
<path class="st0" d="M290.9,127.5h0.7l0.4-0.6c2.5-3.4,4-7.7,4-12.2c0-11.3-9.2-20.6-20.6-20.5c-11.3,0-20.5,9.2-20.5,20.5
	c0,4.6,1.5,9.2,4.4,12.6l0.5,0.5h0.7L290.9,127.5z"/>
<path d="M226,99.8c-1.3,0.1-2.3,1.1-2.3,2.4s1.1,2.4,2.4,2.4s2.4-1.1,2.4-2.4S227.4,99.8,226,99.8L226,99.8l2.9-1
	c4.3,0,7.7,3.5,7.7,7.7s-3.5,7.7-7.7,7.7s-7.7-3.5-7.7-7.7s3.5-7.7,7.7-7.7"/>
<path d="M281,99.8c-1.3,0.1-2.3,1.1-2.3,2.4s1.1,2.4,2.4,2.4s2.4-1.1,2.4-2.4s-1.1-2.4-2.4-2.4H281l2.9-1c4.3,0,7.7,3.5,7.7,7.7
	s-3.5,7.7-7.7,7.7s-7.7-3.5-7.7-7.7s3.5-7.7,7.7-7.7"/>
<path class="st1" d="M219.2,156.1c16.1,0.2,32.2,0.3,48.4,0.5c4.5,76.9,7.2,134.3,8,174.6c0.2,9.4,0.6,39,12.3,42.6
	c5.2,1.6,14.2-1.5,18.6-7.7c2.5-3.6,3.2-7.9,3.2-8.3c0.1-1,0.3-2.5-0.5-8.5c-0.9-6.3-2-11.9-3.4-17.4c-0.4-1.5-0.6-2.5-0.7-2.8
	c-1.9-7.3-7.8-33.7-12.1-77.1c-0.2-1.8-0.3-3.4-0.4-4.5c-0.5-5.1-0.8-10.4-3-37.2c-1.9-23-3.4-41.7-4.4-54
	c6.9-0.3,12.5-0.3,16.1-0.2c16.3,0.3,31.1,2.1,46.4,1.6c0.3,0,5.9-0.1,12.8-1.9c3.4-0.9,6.3-1.6,9.5-3.6c0.5-0.3,2.6-1.6,4.9-3.7
	c1.9-1.7,2.9-3.1,3.2-3.6c0.5-0.6,1-1.4,1.5-2.6c0.2-0.5,0.9-1.9,1-3.4c0.3-2.4-0.7-4.2-1.5-6c-0.5-1.1-2-4-5.2-6
	c-0.6-0.4-1.6-1-3-1.5c-1-0.3-1.5-0.3-3.6-0.7c-2.2-0.4-3.3-0.6-3.6-0.7c-1.3-0.5-2.3-1.6-4.1-3.9c0,0-4-5-5.3-8.8
	c0,0-0.1-0.2-0.1-0.4c-0.2-0.5-0.3-0.4-3-8.6c-1.2-3.6-1.6-5-2.2-6.1c-0.1-0.3-0.3-0.6-0.5-0.9c-0.6-1-2.3-3.5-3.7-3.4
	c-1.7,0.1-2.6,4.6-3.6,9.2c-1,4.7-0.6,5.2-1.5,8.2c-0.5,1.8-1.5,4.9-3.9,8.2c-2.8,3.7-6.2,5.9-8.7,7.1c-79.5-1.3-138,0.1-152,2.1
	c-11.6,1.6-22,5.4-22,5.4c-5.9,2-9.6,3.5-14,6.5c-13.2,8.9-17.6,22.4-18.7,26.2c-1,3.1-3,10-1.5,16.7c0.8,3.9,2.7,7.8,2.7,7.8
	c0.3,0.7,1.4,2.8,2.7,4.8c2.1,3,4.7,5.2,9.7,8.3c8.5,5.4,12.7,8,18,8.5c3,0.3,8.2,0.7,9.7-1.9c1.8-3.1-3.4-7.7-10-20.1
	c-4.9-9.2-7.4-13.9-6.4-18.9c1.3-6.5,7.2-12.1,13-13.8c0.7-0.2,2-0.5,10.4-0.5c5.2,0,9.6,0.2,12.6,0.3c7.8,0,15.5,0,23.3,0
	c-3.4,13.2-6.2,23.9-8,31c-10.6,41.1-15.9,61.7-19.2,75.6c-1.5,6.3-1.5,6.1-2.1,8.5c-2.1,8.1-6.8,26.8-15.1,49.1
	c-0.6,1.7-4.4,10.5-6.8,22.3c-1.9,9.2-1.4,13-0.5,16c0.6,2.1,1.8,5.9,5.1,8.9c5.9,5.2,15.5,5.6,22.3,1.7c6.5-3.7,8.7-10.3,9.2-11.7
	c1-2.9,1.1-5.5,1.4-10.7c0.3-5.8,0-10.1,0-10.4C190.6,330.3,197.1,285.9,219.2,156.1z"/>
<path d="M227.8,141.3c4.9,3.3,8.9,8.3,20.5,8.2c14.7,0,16.2-6.9,16.3-7.3l-0.3-1.9c-2.3,1.1-3.1,5.7-15.8,5.5
	c-10.2-0.2-13.6-2.4-19.6-6.1"/>
</svg>
