<?xml version="1.0" encoding="utf-8"?>
<!-- Generator: Adobe Illustrator 26.5.0, SVG Export Plug-In . SVG Version: 6.00 Build 0)  -->
<svg version="1.1" id="图层_1" xmlns="http://www.w3.org/2000/svg" xmlns:xlink="http://www.w3.org/1999/xlink" x="0px" y="0px"
	 viewBox="0 0 480 480" style="enable-background:new 0 0 480 480;" xml:space="preserve">
<style type="text/css">
	.st0{fill:#FFFFFF;stroke:#000000;stroke-width:3;}
	.st1{fill:#0C7F99;}
</style>
<path class="st0" d="M235.9,127.5l0.7,0l0.4-0.6c2.5-3.4,4-7.7,4-12.2c0-11.3-9.2-20.6-20.6-20.5c-11.3,0-20.5,9.2-20.5,20.5
	c0,4.6,1.5,9.2,4.4,12.6l0.5,0.5l0.7,0L235.9,127.5z"/>
<path class="st0" d="M290.9,127.5l0.7,0l0.4-0.6c2.5-3.4,4-7.7,4-12.2c0-11.3-9.2-20.6-20.6-20.5c-11.3,0-20.5,9.2-20.5,20.5
	c0,4.6,1.5,9.2,4.4,12.6l0.5,0.5l0.7,0L290.9,127.5z"/>
<path d="M226,99.8c-1.3,0.1-2.3,1.1-2.3,2.4c0,1.3,1.1,2.4,2.4,2.4s2.4-1.1,2.4-2.4c0-1.3-1.1-2.4-2.4-2.4H226l2.9-1
	c4.3,0,7.7,3.5,7.7,7.7s-3.5,7.7-7.7,7.7s-7.7-3.5-7.7-7.7s3.5-7.7,7.7-7.7"/>
<path d="M281,99.8c-1.3,0.1-2.3,1.1-2.3,2.4c0,1.3,1.1,2.4,2.4,2.4s2.4-1.1,2.4-2.4c0-1.3-1.1-2.4-2.4-2.4H281l2.9-1
	c4.3,0,7.7,3.5,7.7,7.7s-3.5,7.7-7.7,7.7c-4.2,0-7.7-3.5-7.7-7.7s3.5-7.7,7.7-7.7"/>
<path class="st1" d="M216.4,156.1h64.4c-15.4,63.8-25.1,105.4-25.1,151c0,8,0,69.5,23.4,69.5c12,0,22.2-10.8,22.2-20.5
	c0-2.8,0-4-4-12.5c-15.4-39.3-15.4-88.3-15.4-92.3c0-3.4,0-43.9,12-95.1h63.8c7.4,0,26.2,0,26.2-18.2c0-12.5-10.8-12.5-21.1-12.5
	H175.4c-2.7,0.1-6.5,0.1-11.1,0c-7.5-0.2-11.3-0.3-11.7-1.3c-2.3-4.9,37.3-25.5,35.5-29.4c-1.3-2.8-23.8,4.9-40.3,13
	c-3,1.5-10.4,5.2-18.1,12.3c-6.4,5.9-11.7,10.7-11.5,17.4c0.3,7.4,7.2,12.4,9.2,13.8c6.3,1.5,13.5,2.9,21.4,3.8
	c8.1,0.9,15.6,1.2,22.2,1.2h32.5c-12.5,42.7-26.8,92.3-73.5,192c-4.6,9.1-4.6,10.3-4.6,13.7c0,12,10.3,14.8,15.4,14.8
	c16.5,0,21.1-14.8,27.9-38.7c9.1-29.1,9.1-30.2,14.8-53L216.4,156.1z"/>
<path d="M227.8,141.3c4.9,3.3,8.9,8.3,20.5,8.2c14.7,0,16.2-6.9,16.3-7.3l-0.3-1.9c-2.3,1.1-3.1,5.7-15.8,5.5
	c-10.2-0.2-13.6-2.4-19.6-6.1"/>
</svg>
