<?xml version="1.0" encoding="utf-8"?>
<svg version="1.1" id="图层_1" xmlns="http://www.w3.org/2000/svg" xmlns:xlink="http://www.w3.org/1999/xlink" x="0px" y="0px"
	 viewBox="0 0 480 480" style="enable-background:new 0 0 480 480;" xml:space="preserve">
<style type="text/css">
	.st0{fill:#FFFFFF;stroke:#000000;stroke-width:3;}
	.st1{fill:#0C7F99;}
</style>
<path class="st0" d="M233.9,122.5l0.7,0l0.4-0.6c2.5-3.4,4-7.7,4-12.2c0-11.3-9.2-20.6-20.6-20.5c-11.3,0-20.5,9.2-20.5,20.5
	c0,4.6,1.5,9.2,4.4,12.6l0.5,0.5l0.7,0L233.9,122.5z"/>
<path class="st0" d="M288.9,122.5l0.7,0l0.4-0.6c2.5-3.4,4-7.7,4-12.2c0-11.3-9.2-20.6-20.6-20.5c-11.3,0-20.5,9.2-20.5,20.5
	c0,4.6,1.5,9.2,4.4,12.6l0.5,0.5l0.7,0L288.9,122.5z"/>
<path d="M224,94.8c-1.3,0.1-2.3,1.1-2.3,2.4c0,1.3,1.1,2.4,2.4,2.4c1.3,0,2.4-1.1,2.4-2.4c0-1.3-1.1-2.4-2.4-2.4H224l2.9-1
	c4.3,0,7.7,3.5,7.7,7.7s-3.5,7.7-7.7,7.7c-4.2,0-7.7-3.5-7.7-7.7s3.5-7.7,7.7-7.7"/>
<path d="M279,94.8c-1.3,0.1-2.3,1.1-2.3,2.4c0,1.3,1.1,2.4,2.4,2.4c1.3,0,2.4-1.1,2.4-2.4c0-1.3-1.1-2.4-2.4-2.4H279l2.9-1
	c4.3,0,7.7,3.5,7.7,7.7s-3.5,7.7-7.7,7.7c-4.2,0-7.7-3.5-7.7-7.7s3.5-7.7,7.7-7.7"/>
<path class="st1" d="M220.3,151.1c14.8,0,29.6,0,44.4,0c7.4,66.4,11.5,115.4,12.1,130.3c0.9,19.5,0.1,33.1,0.1,33.1
	c-0.2,2.9-0.4,5.9-0.5,8.8c-0.6,17.4-1.9,20.4,0,27.1c1.5,5.2,3.6,8,4.6,9.2c2.5,3,5.3,4.8,6.6,5.6c0.7,0.4,1.8,1.1,3.1,1.5
	c4.2,1.6,8.4,0.4,11.2-0.5c8.2-2.6,10.4-4.4,18.8-7.8c7.9-3.2,10.4-3.3,12.8-6.5c0.6-0.7,4.3-5.9,2.6-9.7
	c-3.1-6.9-19.6-0.2-27.1-9.2c-3.3-3.9-4.3-9.3-5.1-14.4c-0.7-4-0.4-6-0.5-12.7c-0.1-5.5-0.4-8-1-16.3c-1.2-15.8-2.2-34.6-2.6-39.8
	c-0.9-13.9-4.1-40.9-14.3-99.1c26.6-0.3,43.2,0.3,53.6,1.1c7.8,0.6,15.7,0,23.5,0.5c11.5,0.6,16.3,1.5,18.9-1.5
	c3.5-4.1,1-12.5-2-17.4c-9.4-15-34-12.6-35.9-12.3l-170.3-0.7c-13.1,0-18.4,0.9-24.3-5.3c-10.2-10.8-4.8-19.3-4.8-22.7
	s-2.8-4.6-6.3-4.6c-4,0-6.6,0.8-7.4,5.1c-4,20.7,0,34.4,7.1,43.2c9.7,12.2,24.6,14.6,31.1,15c0.8,0,0.8,0,9.1,0.2
	c9.2,0.2,16.6,0.4,21.4,0.5c-5.7,23.7-11.7,42.2-16.3,55.1c-9.5,26.4-13,28.4-16.3,41.9c-0.5,1.9-2,8-6.1,14.8
	c-3.1,5.1-5.6,9.1-10.2,11.7c-8.2,4.7-13.6-0.7-27.1,3.6c-4.5,1.4-8.9,2.9-10.2,6.6c-1.6,4.8,2.7,10.7,6.6,13.8
	c5,3.9,10.8,4.5,17.4,5.1c3.9,0.3,7.2,0.2,11.2,0c4.6-0.2,8.2-0.6,11.2-1c6.1-0.7,9.2-1.1,10.2-1.5c6-2.5,7.5-9.6,11.6-22.1
	c3.3-9.9-3.5,12.3,8.8-23.4c5.8-16.9,8.7-25.3,11.2-33.2C210.6,193.9,217.2,165.2,220.3,151.1z"/>
<path d="M227.9,142c0,0.9,4.9,5.7,16.4,5.3c9.3-0.4,11-1.5,13.1-5.5l0.9-4c-3.7,0.1-13.2,0.8-19.3,0.6c-4.2-0.1-10-0.1-11,0.1"/>
</svg>
